<svg width="48" height="48" viewBox="0 0 48 48" fill="none" xmlns="http://www.w3.org/2000/svg">
<path d="M0 24C0 10.7452 10.7452 0 24 0C37.2548 0 48 10.7452 48 24C48 37.2548 37.2548 48 24 48C10.7452 48 0 37.2548 0 24Z" fill="url(#paint0_linear_72:1253)"/>
<path fill-rule="evenodd" clip-rule="evenodd" d="M34 24C34 29.5228 29.5228 34 24 34C18.4772 34 14 29.5228 14 24C14 18.4772 18.4772 14 24 14C29.5228 14 34 18.4772 34 24ZM25 19C25 18.4477 24.5523 18 24 18C23.4477 18 23 18.4477 23 19V23H19C18.4477 23 18 23.4477 18 24C18 24.5523 18.4477 25 19 25H23V29C23 29.5523 23.4477 30 24 30C24.5523 30 25 29.5523 25 29V25H29C29.5523 25 30 24.5523 30 24C30 23.4477 29.5523 23 29 23H25V19Z" fill="white"/>
<defs>
<linearGradient id="paint0_linear_72:1253" x1="0" y1="0" x2="42.315" y2="52.5756" gradientUnits="userSpaceOnUse">
<stop stop-color="#3F5EFB"/>
<stop offset="1" stop-color="#FC466B"/>
</linearGradient>
</defs>
</svg>
