<svg width="20" height="20" viewBox="0 0 20 20" fill="none" xmlns="http://www.w3.org/2000/svg">
<path d="M4 0H16C18.2091 0 20 1.79086 20 4V16C20 18.2091 18.2091 20 16 20H4C1.79086 20 0 18.2091 0 16V4C0 1.79086 1.79086 0 4 0ZM4 2C2.89543 2 2 2.89543 2 4V16C2 17.1046 2.89543 18 4 18H16C17.1046 18 18 17.1046 18 16V4C18 2.89543 17.1046 2 16 2H4ZM7 14C7 14.5523 6.55228 15 6 15C5.44772 15 5 14.5523 5 14V12C5 11.4477 5.44772 11 6 11C6.55228 11 7 11.4477 7 12V14ZM11 14C11 14.5523 10.5523 15 10 15C9.44771 15 9 14.5523 9 14V9C9 8.44771 9.44771 8 10 8C10.5523 8 11 8.44771 11 9V14ZM15 14C15 14.5523 14.5523 15 14 15C13.4477 15 13 14.5523 13 14V6C13 5.44772 13.4477 5 14 5C14.5523 5 15 5.44772 15 6V14Z" fill="#93A1AE"/>
</svg>
