<svg width="20" height="21" viewBox="0 0 20 21" fill="none" xmlns="http://www.w3.org/2000/svg">
<path d="M10 8.99996C9.44771 8.99996 9 8.55224 9 7.99996C9 7.44767 9.44771 6.99996 10 6.99996C10.5523 6.99996 11 7.44767 11 7.99996C11 8.55224 10.5523 8.99996 10 8.99996ZM11 16C11 16.5522 10.5523 17 10 17C9.44771 17 9 16.5522 9 16V12C9 11.4477 9.44771 11 10 11C10.5523 11 11 11.4477 11 12V16ZM6 16C6 16.5522 5.55228 17 5 17C4.44772 17 4 16.5522 4 16V12C4 11.4477 4.44772 11 5 11C5.55228 11 6 11.4477 6 12V16ZM16 16C16 16.5522 15.5523 17 15 17C14.4477 17 14 16.5522 14 16V12C14 11.4477 14.4477 11 15 11C15.5523 11 16 11.4477 16 12V16ZM4 21C1.79086 21 0 19.2091 0 17V7.2997C0 6.11414 0.698201 5.03977 1.78158 4.55827L10 0.90564L18.2184 4.55827C19.3018 5.03977 20 6.11414 20 7.2997V17C20 19.2091 18.2091 21 16 21H4ZM10 3.09427L2.59386 6.38589C2.23273 6.54639 2 6.90451 2 7.2997V17C2 18.1045 2.89543 19 4 19H16C17.1046 19 18 18.1045 18 17V7.2997C18 6.90451 17.7673 6.54639 17.4061 6.38589L10 3.09427Z" fill="#93A1AE"/>
</svg>
