<svg width="20" height="20" viewBox="0 0 20 20" fill="none" xmlns="http://www.w3.org/2000/svg">
<path d="M9 3.99995C5.13401 3.99995 2 7.13395 2 10.9999C2 14.8659 5.13401 17.9999 9 17.9999C12.2123 17.9999 14.99 15.8174 15.7794 12.7512C15.9171 12.2163 16.4623 11.8944 16.9971 12.0321C17.532 12.1698 17.8539 12.715 17.7162 13.2498C16.7006 17.1946 13.1303 19.9999 9 19.9999C4.02944 19.9999 0 15.9705 0 10.9999C0 6.02938 4.02944 1.99995 9 1.99995V1.51041C9 0.681967 9.67156 0.010376 10.5 0.010376C10.5317 0.010599 10.5317 0.010599 10.5633 0.0117141C13.2364 0.124696 15.4681 1.05378 17.2071 2.79284C18.9461 4.53188 19.8752 6.76351 19.9882 9.43618C20.0235 10.2641 19.3808 10.9636 18.5529 10.9986C18.5213 10.9997 18.5213 10.9997 18.4896 10.9999H10.5C9.67157 10.9999 9 10.3284 9 9.49995V3.99995ZM11 8.99995H17.9551C17.7755 7.05483 17.0563 5.47047 15.7929 4.20705C14.5295 2.94364 12.9451 2.22448 11 2.0448V8.99995Z" fill="#93A1AE"/>
</svg>
