<svg width="20" height="20" viewBox="0 0 20 20" fill="none" xmlns="http://www.w3.org/2000/svg">
<path fill-rule="evenodd" clip-rule="evenodd" d="M14 3.99995H16C18.2091 3.99995 20 5.79081 20 7.99995V16C20 18.2091 18.2091 20 16 20H4C1.79086 20 0 18.2091 0 16V7.16223C0 5.44051 1.10172 3.91195 2.73509 3.3675L12.5521 0.0951447C12.723 0.0482266 12.723 0.0482266 12.9 0.0386963C13.5075 0.0386963 14 0.531183 14 1.1387V3.99995ZM12 2.38737V3.99995H7.16228L12 2.38737ZM12.5 11.9999C12.5 12.8284 13.1716 13.4999 14 13.4999C14.8284 13.4999 15.5 12.8284 15.5 11.9999C15.5 11.1715 14.8284 10.4999 14 10.4999C13.1716 10.4999 12.5 11.1715 12.5 11.9999Z" fill="#3F5EFB"/>
</svg>
